<svg width="13" height="14" viewBox="0 0 13 14" fill="none" xmlns="http://www.w3.org/2000/svg">
<path fill-rule="evenodd" clip-rule="evenodd" d="M7.93651 2.39699C7.93651 1.84972 8.15391 1.32486 8.54089 0.937879C8.92787 0.550899 9.45273 0.333496 10 0.333496C10.5473 0.333496 11.0721 0.550899 11.4591 0.937879C11.8461 1.32486 12.0635 1.84972 12.0635 2.39699C12.0635 2.94426 11.8461 3.46912 11.4591 3.8561C11.1865 4.12875 10.8454 4.31723 10.4762 4.40479V4.93667C10.4762 5.56814 10.2253 6.17374 9.77883 6.62026C9.33231 7.06677 8.72671 7.31762 8.09524 7.31762H3.65079C3.35611 7.31762 3.07349 7.43469 2.86512 7.64306C2.65675 7.85143 2.53968 8.13405 2.53968 8.42873V9.53985C2.53968 9.5583 2.53861 9.57664 2.5365 9.59478C2.90689 9.68202 3.24916 9.87079 3.5226 10.1442C3.90958 10.5312 4.12698 11.0561 4.12698 11.6033C4.12698 12.1506 3.90958 12.6755 3.5226 13.0624C3.13562 13.4494 2.61076 13.6668 2.06349 13.6668C1.51622 13.6668 0.991363 13.4494 0.604383 13.0624C0.217403 12.6755 0 12.1506 0 11.6033C0 11.0561 0.217403 10.5312 0.604383 10.1442C0.877821 9.87079 1.2201 9.68202 1.59048 9.59478C1.58837 9.57664 1.5873 9.5583 1.5873 9.53985V4.46048C1.5873 4.44203 1.58837 4.42369 1.59048 4.40554C1.2201 4.31831 0.877821 4.12954 0.604383 3.8561C0.217403 3.46912 0 2.94426 0 2.39699C0 1.84972 0.217403 1.32486 0.604383 0.937879C0.991363 0.550899 1.51622 0.333496 2.06349 0.333496C2.61076 0.333496 3.13562 0.550899 3.5226 0.937879C3.90958 1.32486 4.12698 1.84972 4.12698 2.39699C4.12698 2.94426 3.90958 3.46912 3.5226 3.8561C3.24916 4.12954 2.90689 4.31831 2.5365 4.40554C2.53861 4.42369 2.53968 4.44203 2.53968 4.46048V6.68992C2.86892 6.47955 3.25397 6.36524 3.65079 6.36524H8.09524C8.47412 6.36524 8.83748 6.21473 9.10539 5.94682C9.3733 5.67891 9.52381 5.31555 9.52381 4.93667V4.40479C9.15465 4.31723 8.81355 4.12875 8.54089 3.8561C8.15391 3.46912 7.93651 2.94426 7.93651 2.39699ZM2.06349 3.5081C2.35826 3.50802 2.64092 3.39084 2.8493 3.18235C3.05767 2.97385 3.17469 2.69112 3.1746 2.39635C3.17452 2.10158 3.05734 1.81892 2.84885 1.61055C2.64036 1.40217 2.35763 1.28516 2.06286 1.28524C1.9169 1.28528 1.77238 1.31407 1.63756 1.36997C1.50273 1.42586 1.38023 1.50776 1.27705 1.611C1.06868 1.81949 0.951662 2.10222 0.951746 2.39699C0.95183 2.69176 1.06901 2.97442 1.2775 3.18279C1.48599 3.39117 1.76872 3.50818 2.06349 3.5081ZM2.06349 12.7144C2.20945 12.7144 2.35396 12.6856 2.48879 12.6297C2.62362 12.5738 2.74612 12.4919 2.8493 12.3887C2.95247 12.2855 3.03431 12.1629 3.09012 12.0281C3.14594 11.8932 3.17464 11.7487 3.1746 11.6027C3.17456 11.4567 3.14577 11.3122 3.08988 11.1774C3.03399 11.0426 2.95208 10.9201 2.84885 10.8169C2.74561 10.7137 2.62307 10.6319 2.48821 10.5761C2.35335 10.5203 2.20881 10.4916 2.06286 10.4916C1.76809 10.4917 1.48542 10.6089 1.27705 10.8173C1.06868 11.0258 0.951662 11.3086 0.951746 11.6033C0.95183 11.8981 1.06901 12.1808 1.2775 12.3891C1.48599 12.5975 1.76872 12.7145 2.06349 12.7144ZM10 3.5081C10.2948 3.50802 10.5774 3.39084 10.7858 3.18235C10.9942 2.97385 11.1112 2.69112 11.1111 2.39635C11.111 2.10158 10.9938 1.81892 10.7854 1.61055C10.5769 1.40217 10.2941 1.28516 9.99936 1.28524C9.85341 1.28528 9.70889 1.31407 9.57406 1.36997C9.43924 1.42586 9.31674 1.50776 9.21356 1.611C9.11038 1.71423 9.02855 1.83678 8.97273 1.97164C8.91692 2.1065 8.88821 2.25103 8.88825 2.39699C8.8883 2.54294 8.91708 2.68746 8.97298 2.82229C9.02887 2.95712 9.11077 3.07962 9.21401 3.18279C9.31724 3.28597 9.43979 3.3678 9.57465 3.42362C9.70951 3.47943 9.85404 3.50814 10 3.5081Z" fill="#424242"/>
</svg>
