<svg width="16" height="16" viewBox="0 0 16 16" fill="none" xmlns="http://www.w3.org/2000/svg">
<path fill-rule="evenodd" clip-rule="evenodd" d="M9.93651 3.39687C9.93651 2.84959 10.1539 2.32474 10.5409 1.93776C10.9279 1.55078 11.4527 1.33337 12 1.33337C12.5473 1.33337 13.0721 1.55078 13.4591 1.93776C13.8461 2.32474 14.0635 2.84959 14.0635 3.39687C14.0635 3.94414 13.8461 4.469 13.4591 4.85598C13.1865 5.12863 12.8454 5.3171 12.4762 5.40467V5.93655C12.4762 6.56802 12.2253 7.17362 11.7788 7.62014C11.3323 8.06665 10.7267 8.3175 10.0952 8.3175H5.65079C5.35611 8.3175 5.07349 8.43456 4.86512 8.64294C4.65675 8.85131 4.53968 9.13393 4.53968 9.42861V10.5397C4.53968 10.5582 4.53861 10.5765 4.5365 10.5947C4.90689 10.6819 5.24916 10.8707 5.5226 11.1441C5.90958 11.5311 6.12698 12.0559 6.12698 12.6032C6.12698 13.1505 5.90958 13.6753 5.5226 14.0623C5.13562 14.4493 4.61076 14.6667 4.06349 14.6667C3.51622 14.6667 2.99136 14.4493 2.60438 14.0623C2.2174 13.6753 2 13.1505 2 12.6032C2 12.0559 2.2174 11.5311 2.60438 11.1441C2.87782 10.8707 3.2201 10.6819 3.59048 10.5947C3.58837 10.5765 3.5873 10.5582 3.5873 10.5397V5.46036C3.5873 5.44191 3.58837 5.42357 3.59048 5.40542C3.2201 5.31819 2.87782 5.12941 2.60438 4.85598C2.2174 4.469 2 3.94414 2 3.39687C2 2.84959 2.2174 2.32474 2.60438 1.93776C2.99136 1.55078 3.51622 1.33337 4.06349 1.33337C4.61076 1.33337 5.13562 1.55078 5.5226 1.93776C5.90958 2.32474 6.12698 2.84959 6.12698 3.39687C6.12698 3.94414 5.90958 4.469 5.5226 4.85598C5.24916 5.12941 4.90689 5.31819 4.5365 5.40542C4.53861 5.42357 4.53968 5.44191 4.53968 5.46036V7.6898C4.86892 7.47943 5.25397 7.36512 5.65079 7.36512H10.0952C10.4741 7.36512 10.8375 7.21461 11.1054 6.9467C11.3733 6.67879 11.5238 6.31543 11.5238 5.93655V5.40467C11.1546 5.3171 10.8135 5.12863 10.5409 4.85598C10.1539 4.469 9.93651 3.94414 9.93651 3.39687ZM4.06349 4.50798C4.35826 4.50789 4.64092 4.39072 4.8493 4.18222C5.05767 3.97373 5.17469 3.691 5.1746 3.39623C5.17452 3.10146 5.05734 2.8188 4.84885 2.61043C4.64036 2.40205 4.35763 2.28504 4.06286 2.28512C3.9169 2.28516 3.77238 2.31395 3.63756 2.36984C3.50273 2.42574 3.38023 2.50764 3.27705 2.61087C3.06868 2.81937 2.95166 3.1021 2.95175 3.39687C2.95183 3.69164 3.06901 3.9743 3.2775 4.18267C3.48599 4.39105 3.76872 4.50806 4.06349 4.50798ZM4.06349 13.7143C4.20945 13.7143 4.35396 13.6855 4.48879 13.6296C4.62362 13.5737 4.74612 13.4918 4.8493 13.3886C4.95247 13.2853 5.03431 13.1628 5.09012 13.0279C5.14594 12.8931 5.17464 12.7485 5.1746 12.6026C5.17456 12.4566 5.14577 12.3121 5.08988 12.1773C5.03399 12.0425 4.95208 11.92 4.84885 11.8168C4.74561 11.7136 4.62307 11.6318 4.48821 11.576C4.35335 11.5201 4.20881 11.4914 4.06286 11.4915C3.76809 11.4916 3.48542 11.6087 3.27705 11.8172C3.06868 12.0257 2.95166 12.3084 2.95175 12.6032C2.95183 12.898 3.06901 13.1806 3.2775 13.389C3.48599 13.5974 3.76872 13.7144 4.06349 13.7143ZM12 4.50798C12.2948 4.50789 12.5774 4.39072 12.7858 4.18222C12.9942 3.97373 13.1112 3.691 13.1111 3.39623C13.111 3.10146 12.9938 2.8188 12.7854 2.61043C12.5769 2.40205 12.2941 2.28504 11.9994 2.28512C11.8534 2.28516 11.7089 2.31395 11.5741 2.36984C11.4392 2.42574 11.3167 2.50764 11.2136 2.61087C11.1104 2.71411 11.0286 2.83666 10.9727 2.97152C10.9169 3.10638 10.8882 3.25091 10.8883 3.39687C10.8883 3.54282 10.9171 3.68734 10.973 3.82217C11.0289 3.957 11.1108 4.0795 11.214 4.18267C11.3172 4.28585 11.4398 4.36768 11.5746 4.4235C11.7095 4.47931 11.854 4.50802 12 4.50798Z" fill="#CCCCCC"/>
</svg>
