<svg width="16" height="16" viewBox="0 0 16 16" fill="none" xmlns="http://www.w3.org/2000/svg">
<rect width="16" height="16" rx="8" fill="#B043C6"/>
<rect width="16" height="16" rx="8" fill="url(#paint0_linear_5_40)" fill-opacity="0.1"/>
<path d="M11.2048 6.81746H9.87672C9.83884 6.59966 9.769 6.40671 9.6672 6.23862C9.5654 6.06817 9.43875 5.92376 9.28723 5.80538C9.13572 5.68701 8.96289 5.59823 8.76877 5.53905C8.577 5.4775 8.36985 5.44672 8.14732 5.44672C7.75196 5.44672 7.40158 5.54615 7.09618 5.74501C6.79078 5.94151 6.55167 6.23034 6.37885 6.61149C6.20603 6.99028 6.11962 7.45311 6.11962 7.99999C6.11962 8.55633 6.20603 9.02508 6.37885 9.40624C6.55404 9.78502 6.79315 10.0715 7.09618 10.2656C7.40158 10.4574 7.75077 10.5533 8.14377 10.5533C8.36157 10.5533 8.56517 10.5248 8.75456 10.468C8.94632 10.4088 9.11796 10.3224 9.26948 10.2088C9.42336 10.0952 9.55238 9.95548 9.65655 9.78976C9.76308 9.62404 9.83647 9.43465 9.87672 9.22158L11.2048 9.22868C11.1551 9.57432 11.0474 9.89866 10.8817 10.2017C10.7183 10.5047 10.5041 10.7722 10.2389 11.0042C9.97378 11.2339 9.66365 11.4138 9.30854 11.544C8.95342 11.6719 8.55925 11.7358 8.12601 11.7358C7.48681 11.7358 6.91626 11.5878 6.41436 11.2919C5.91247 10.996 5.51711 10.5686 5.22828 10.0099C4.93946 9.45122 4.79504 8.78124 4.79504 7.99999C4.79504 7.21637 4.94064 6.54639 5.23183 5.99004C5.52303 5.43133 5.91957 5.00401 6.42146 4.70808C6.92336 4.41215 7.49154 4.26419 8.12601 4.26419C8.53084 4.26419 8.90726 4.32101 9.25527 4.43465C9.60328 4.54828 9.91342 4.71519 10.1857 4.93536C10.4579 5.15316 10.6816 5.42068 10.8568 5.73791C11.0344 6.05278 11.1504 6.41263 11.2048 6.81746Z" fill="white"/>
<defs>
<linearGradient id="paint0_linear_5_40" x1="8" y1="0" x2="8" y2="16" gradientUnits="userSpaceOnUse">
<stop stop-opacity="0"/>
<stop offset="1"/>
</linearGradient>
</defs>
</svg>
