<svg fill="none" xmlns="http://www.w3.org/2000/svg" width="16" height="16">
  <rect width="16" height="16" rx="2" fill="#AB1A1A"/>
  <path d="M9.975 9.64h2.011a3.603 3.603 0 0 1-.545 1.743 3.24 3.24 0 0 1-1.338 1.19c-.57.284-1.256.427-2.06.427-.627 0-1.19-.107-1.688-.32a3.594 3.594 0 0 1-1.278-.936 4.158 4.158 0 0 1-.801-1.47C4.092 9.7 4 9.057 4 8.345v-.675c0-.712.094-1.356.283-1.93a4.255 4.255 0 0 1 .82-1.476 3.657 3.657 0 0 1 1.286-.936A4.114 4.114 0 0 1 8.057 3c.817 0 1.505.147 2.066.44.565.295 1.002.7 1.312 1.217.314.516.502 1.104.565 1.763H9.982c-.023-.392-.101-.723-.236-.995a1.331 1.331 0 0 0-.612-.621c-.27-.143-.628-.214-1.077-.214-.336 0-.63.062-.881.187a1.632 1.632 0 0 0-.633.568c-.17.254-.298.574-.383.962a6.61 6.61 0 0 0-.121 1.349v.688c0 .503.038.946.114 1.33.076.378.193.699.35.961.161.259.368.454.619.588.256.13.563.194.922.194.421 0 .769-.067 1.043-.2a1.39 1.39 0 0 0 .625-.595c.148-.263.236-.59.263-.982Z" fill="#fff"/>
</svg>