<svg xmlns="http://www.w3.org/2000/svg" xmlns:xlink="http://www.w3.org/1999/xlink" viewBox="499 503 24 24">
  <defs>
    <clipPath id="clip-path">
      <rect id="Rectangle_2" data-name="Rectangle 2" width="24" height="24" transform="translate(1444 -383)"/>
    </clipPath>
    <clipPath id="clip-github">
      <rect x="499" y="503" width="24" height="24"/>
    </clipPath>
  </defs>
  <g id="github" style="clip-path: url(#clip-github)">
    <g id="github-2" data-name="github" style="clip-path: url(#clip-path)" transform="translate(-945 886)">
      <path id="github-3" data-name="github" fill="#777" style="fill-rule: evenodd" d="M12,0a12,12,0,0,0-3.8,23.385c.6.113.82-.258.82-.578,0-.285-.01-1.039-.015-2.04-3.339.725-4.043-1.609-4.043-1.609A3.175,3.175,0,0,0,3.634,17.4c-1.087-.75.084-.729.084-.729A2.515,2.515,0,0,1,5.551,17.91a2.55,2.55,0,0,0,3.495,1,2.55,2.55,0,0,1,.76-1.6c-2.665-.3-5.466-1.332-5.466-5.93A4.634,4.634,0,0,1,5.575,8.153a4.264,4.264,0,0,1,.1-3.176s1.005-.322,3.3,1.23a11.313,11.313,0,0,1,6,0c2.28-1.553,3.285-1.23,3.285-1.23a4.383,4.383,0,0,1,.12,3.176,4.65,4.65,0,0,1,1.23,3.22c0,4.61-2.805,5.625-5.475,5.92a2.871,2.871,0,0,1,.81,2.22c0,1.605-.015,2.9-.015,3.285,0,.315.21.69.825.57A11.985,11.985,0,0,0,12,0" transform="translate(1443.999 -383)"/>
    </g>
  </g>
</svg>
