<svg width="16" height="16" viewBox="0 0 16 16" fill="none" xmlns="http://www.w3.org/2000/svg">
<path fill-rule="evenodd" clip-rule="evenodd" d="M7 14.9967C6.96816 15.0011 6.93584 15.0011 6.90401 14.9967C2.87522 13.677 1.00031 10.9969 1.00031 6.54846V3.05264C0.997285 2.98839 1.01624 2.92496 1.05423 2.87226C1.09221 2.81956 1.14709 2.78056 1.2103 2.76133L6.91001 1.01342C6.96859 0.995527 7.03141 0.995527 7.09 1.01342L12.7897 2.76133C12.8529 2.78056 12.9078 2.81956 12.9458 2.87226C12.9838 2.92496 13.0027 2.98839 12.9997 3.05264V4.88396C12.701 5.05691 12.5 5.37999 12.5 5.75V6.75C12.5 6.75487 12.5 6.75974 12.5001 6.7646C12.5002 6.76809 12.5002 6.77158 12.5003 6.77507C12.4194 6.75863 12.3357 6.75 12.25 6.75H11C10.3096 6.75 9.75 7.30964 9.75 8V9.25C9.75 9.6589 9.94634 10.0219 10.2499 10.25H8.25C7.55964 10.25 7 10.8096 7 11.5V14.5C7 14.6758 7.03628 14.8431 7.10175 14.9948C7.09984 14.9954 7.09792 14.9961 7.09599 14.9967C7.06416 15.0011 7.03184 15.0011 7 14.9967Z" fill="url(#paint0_linear_2201_54)"/>
<path fill-rule="evenodd" clip-rule="evenodd" d="M14.75 5.75C14.75 5.61193 14.6381 5.5 14.5 5.5H13.5C13.3619 5.5 13.25 5.61193 13.25 5.75V6.75C13.25 6.88807 13.3619 7 13.5 7H14.5C14.6381 7 14.75 6.88807 14.75 6.75V5.75ZM12.75 8C12.75 7.72386 12.5261 7.5 12.25 7.5H11C10.7239 7.5 10.5 7.72386 10.5 8V9.25C10.5 9.52614 10.7239 9.75 11 9.75H12.25C12.5261 9.75 12.75 9.52614 12.75 9.25V8ZM14.5 12.5C14.7761 12.5 15 12.7239 15 13V14.5C15 14.7761 14.7761 15 14.5 15H13C12.7239 15 12.5 14.7761 12.5 14.5V13C12.5 12.7239 12.7239 12.5 13 12.5H14.5ZM11.75 11.5C11.75 11.2239 11.5261 11 11.25 11H8.25C7.97386 11 7.75 11.2239 7.75 11.5V14.5C7.75 14.7761 7.97386 15 8.25 15H11.25C11.5261 15 11.75 14.7761 11.75 14.5V11.5ZM14.5 9.75C14.7761 9.75 15 9.97386 15 10.25V11.25C15 11.5261 14.7761 11.75 14.5 11.75H13.5C13.2239 11.75 13 11.5261 13 11.25V10.25C13 9.97386 13.2239 9.75 13.5 9.75H14.5Z" fill="url(#paint1_linear_2201_54)"/>
<defs>
<linearGradient id="paint0_linear_2201_54" x1="2.6963" y1="0.999999" x2="17.0419" y2="4.39173" gradientUnits="userSpaceOnUse">
<stop stop-color="#9043C6"/>
<stop offset="1" stop-color="#145DEB"/>
</linearGradient>
<linearGradient id="paint1_linear_2201_54" x1="15" y1="5.5" x2="6.25579" y2="7.1683" gradientUnits="userSpaceOnUse">
<stop stop-color="#43B59A"/>
<stop offset="1" stop-color="#FFE792"/>
</linearGradient>
</defs>
</svg>
