<svg width="16" height="16" viewBox="0 0 16 16" fill="none" xmlns="http://www.w3.org/2000/svg">
<path fill-rule="evenodd" clip-rule="evenodd" d="M6.90401 14.9967C6.93584 15.0011 6.96816 15.0011 7 14.9967C7.03184 15.0011 7.06416 15.0011 7.096 14.9967C8.10019 14.6677 8.97057 14.2543 9.71145 13.75H7.375C6.75368 13.75 6.25 13.2463 6.25 12.625V5.875C6.25 5.25368 6.75368 4.75 7.375 4.75H12.9997V3.05264C13.0027 2.98839 12.9838 2.92496 12.9458 2.87226C12.9078 2.81956 12.8529 2.78056 12.7897 2.76133L7.09 1.01342C7.03141 0.995527 6.96859 0.995527 6.91001 1.01342L1.2103 2.76133C1.14709 2.78056 1.09221 2.81956 1.05423 2.87226C1.01624 2.92496 0.997285 2.98839 1.00031 3.05264V6.54846C1.00031 10.9969 2.87522 13.677 6.90401 14.9967Z" fill="url(#paint0_linear_2201_19)"/>
<path fill-rule="evenodd" clip-rule="evenodd" d="M7.375 5.5C7.16789 5.5 7 5.66789 7 5.875V12.625C7 12.8321 7.16789 13 7.375 13H14.125C14.3321 13 14.5 12.8321 14.5 12.625V5.875C14.5 5.66789 14.3321 5.5 14.125 5.5H7.375ZM11.2631 7.4033C11.0689 7.35269 10.8704 7.46907 10.8198 7.66326L10.0255 10.7105C9.97491 10.9047 10.0913 11.1032 10.2855 11.1538C10.4797 11.2044 10.6781 11.088 10.7287 10.8938L11.523 7.84655C11.5736 7.65237 11.4572 7.45392 11.2631 7.4033ZM11.9451 7.82805C12.0741 7.67433 12.3033 7.65428 12.457 7.78327L13.6248 8.76316C13.7786 8.89215 13.7986 9.12134 13.6696 9.27506C13.666 9.27932 13.6624 9.28347 13.6587 9.28752L12.6685 10.4676C12.5395 10.6213 12.3103 10.6413 12.1566 10.5123C12.0029 10.3834 11.9828 10.1542 12.1118 10.0004L12.8791 9.08605L11.9899 8.33996C11.8362 8.21097 11.8161 7.98178 11.9451 7.82805ZM9.34172 7.78327C9.49544 7.65428 9.72463 7.67433 9.85362 7.82805C9.98262 7.98178 9.96256 8.21097 9.80884 8.33996L8.91968 9.08605L9.68582 9.9991C9.81482 10.1528 9.79476 10.382 9.64104 10.511C9.48731 10.64 9.25812 10.6199 9.12913 10.4662L8.14008 9.28752C8.13636 9.28347 8.13271 9.27932 8.12915 9.27506C8.00015 9.12134 8.02021 8.89215 8.17393 8.76316L9.34172 7.78327Z" fill="url(#paint1_linear_2201_19)"/>
<defs>
<linearGradient id="paint0_linear_2201_19" x1="3.19521" y1="0.999997" x2="17.5423" y2="4.36802" gradientUnits="userSpaceOnUse">
<stop stop-color="#9043C6"/>
<stop offset="1" stop-color="#145DEB"/>
</linearGradient>
<linearGradient id="paint1_linear_2201_19" x1="5.85417" y1="5.5" x2="16.1667" y2="15.3958" gradientUnits="userSpaceOnUse">
<stop stop-color="#14B7EB"/>
<stop offset="1" stop-color="#145DEB"/>
</linearGradient>
</defs>
</svg>
