<svg width="16" height="16" viewBox="0 0 16 16" fill="none" xmlns="http://www.w3.org/2000/svg">
<path fill-rule="evenodd" clip-rule="evenodd" d="M6.90401 14.9967C6.93584 15.0011 6.96816 15.0011 7 14.9967C7.03184 15.0011 7.06416 15.0011 7.096 14.9967C7.39644 14.8983 7.6849 14.7923 7.9615 14.6786L4.84383 12.7349L4.81834 12.7159C4.59509 12.5489 4.38635 12.249 4.38635 11.8722C4.38635 11.5563 4.533 11.2013 4.85406 11.0018L4.8447 10.996L4.81834 10.9763C4.5951 10.8093 4.38635 10.5095 4.38635 10.1326C4.38635 9.75576 4.5951 9.45593 4.81834 9.28891L4.84068 9.2722L4.81835 9.25549C4.61962 9.10682 4.38636 8.83178 4.38636 8.41179C4.38636 8.08426 4.54407 7.71458 4.89047 7.51994L9.52716 4.62931L9.533 4.62582C9.86392 4.42777 10.2724 4.42777 10.6033 4.62582L10.6092 4.62931L12.9997 6.11961V3.05264C13.0027 2.98839 12.9838 2.92496 12.9458 2.87226C12.9078 2.81956 12.8529 2.78056 12.7897 2.76133L7.09 1.01342C7.03141 0.995527 6.96859 0.995527 6.91001 1.01342L1.2103 2.76133C1.14709 2.78056 1.09221 2.81956 1.05423 2.87226C1.01624 2.92496 0.997285 2.98839 1.00031 3.05264V6.54846C1.00031 10.9969 2.87522 13.677 6.90401 14.9967ZM12.9931 6.9993L10.2182 5.26937C10.1704 5.24078 10.1178 5.22675 10.0652 5.22729C10.1178 5.22676 10.1704 5.24079 10.2181 5.26937L12.9931 6.99934C12.9931 6.99933 12.9931 6.99931 12.9931 6.9993ZM12.4665 10.1429L10.2181 11.5355C10.1912 11.5516 10.1628 11.5631 10.1337 11.57C10.1628 11.5631 10.1913 11.5516 10.2182 11.5355L12.4664 10.1429C12.4664 10.1429 12.4665 10.1429 12.4665 10.1429ZM10.677 12.9721L10.2181 13.2563L10.2169 13.2571L10.2182 13.2563L10.6769 12.9722C10.6769 12.9722 10.6769 12.9722 10.677 12.9721ZM9.65754 13.7864L5.73642 11.3484L5.73638 11.3485L9.65751 13.7864C9.65752 13.7864 9.65753 13.7864 9.65754 13.7864ZM5.73642 9.60888L9.91815 12.2089C9.96648 12.2378 10.0198 12.2518 10.0729 12.2509C10.0198 12.2518 9.96644 12.2378 9.91809 12.2089L5.73638 9.60891L5.73642 9.60888ZM10.1343 13.2907C10.16 13.2845 10.1853 13.2748 10.2094 13.2614L10.2082 13.2621C10.1844 13.2751 10.1596 13.2846 10.1343 13.2907Z" fill="url(#paint0_linear_2201_6)"/>
<path fill-rule="evenodd" clip-rule="evenodd" d="M9.91815 11.5355C10.0119 11.5916 10.1244 11.5916 10.2182 11.5355L14.8687 8.65495C14.9437 8.59883 15 8.50531 15 8.41179C15 8.31826 14.9437 8.22474 14.8687 8.16862L10.2182 5.26937C10.1244 5.21325 10.0119 5.21325 9.91815 5.26937L5.26762 8.16862C5.19261 8.20603 5.13635 8.29956 5.13635 8.41179C5.13635 8.52401 5.19261 8.59883 5.26762 8.65495L9.91815 11.5355ZM14.4187 11.3484L10.2182 13.9484C10.1244 14.0045 10.0119 14.0045 9.91815 13.9484L5.73642 11.3484L5.26762 11.629C5.19261 11.6664 5.13635 11.7599 5.13635 11.8722C5.13635 11.9657 5.19261 12.0592 5.26762 12.1153L9.91815 15.0146C10.0119 15.0707 10.1244 15.0707 10.2182 15.0146L14.8687 12.1153C14.9437 12.0592 15 11.9657 15 11.8722C15 11.7786 14.9437 11.6851 14.8687 11.629L14.4187 11.3484ZM10.2182 12.2089L14.4187 9.60888L14.8687 9.88946C14.9437 9.94557 15 10.0391 15 10.1326C15 10.2261 14.9437 10.3197 14.8687 10.3758L10.2182 13.2563C10.1244 13.3125 10.0119 13.3125 9.91815 13.2563L5.26762 10.3758C5.19261 10.3197 5.13635 10.2261 5.13635 10.1326C5.13635 10.0391 5.19261 9.94557 5.26762 9.88946L5.73642 9.60888L9.91815 12.2089C10.0119 12.265 10.1244 12.265 10.2182 12.2089Z" fill="url(#paint1_linear_2201_6)"/>
<defs>
<linearGradient id="paint0_linear_2201_6" x1="2.69521" y1="0.999998" x2="17.0423" y2="4.36802" gradientUnits="userSpaceOnUse">
<stop stop-color="#9043C6"/>
<stop offset="1" stop-color="#145DEB"/>
</linearGradient>
<linearGradient id="paint1_linear_2201_6" x1="6.56033" y1="5.22728" x2="18.3352" y2="8.55569" gradientUnits="userSpaceOnUse">
<stop stop-color="#43B59A"/>
<stop offset="1" stop-color="#145DEB"/>
</linearGradient>
</defs>
</svg>
