<svg xmlns="http://www.w3.org/2000/svg" fill="none" viewBox="0 0 64 64"><path fill="url(#a)" d="M29.147 4.054c.229-.072.475-.072.705 0l22.324 6.991c.464.144.804.59.822 1.07V25h-7.756l-2.535-2.535A5 5 0 0 0 39.172 21H28a5 5 0 0 0-5 5v24a5 5 0 0 0 5 5h12.015c-4.404 3.48-8.674 4.986-10.516 4.986C25 59.986 6 51 6 26.193V12.114c.018-.479.358-.925.822-1.069z"/><path fill="url(#b)" fill-rule="evenodd" d="M39.172 24a2 2 0 0 1 1.414.586l2.828 2.828a2 2 0 0 0 1.414.586H56a2 2 0 0 1 2 2v20a2 2 0 0 1-2 2H28a2 2 0 0 1-2-2V26a2 2 0 0 1 2-2zM42 33a4 4 0 0 0-2 7.463V45a2 2 0 1 0 4 0v-4.537A4 4 0 0 0 42 33" clip-rule="evenodd"/><defs><linearGradient id="a" x1="12.785" x2="70.164" y1="4" y2="17.569" gradientUnits="userSpaceOnUse"><stop stop-color="#9043c6"/><stop offset="1" stop-color="#145deb"/></linearGradient><linearGradient id="b" x1="58" x2="30.248" y1="52" y2="20.283" gradientUnits="userSpaceOnUse"><stop stop-color="#e555ac"/><stop offset="1" stop-color="#f99048"/></linearGradient></defs></svg>