<?xml version="1.0" encoding="UTF-8"?>
<svg width="600px" height="600px" viewBox="0 0 600 600" version="1.1" xmlns="http://www.w3.org/2000/svg" xmlns:xlink="http://www.w3.org/1999/xlink">
    <!-- Generator: Sketch 51.2 (57519) - http://www.bohemiancoding.com/sketch -->
    <title>avatar-transparent</title>
    <desc>Created with Sketch.</desc>
    <defs>
        <path d="M147.854284,372.965338 C141.658475,368.350307 135.302522,362.527355 135.302522,358.060261 C135.302522,355.125953 140.587777,346.082183 140.587777,346.082183 L179.888809,346.082183 C179.888809,346.082183 185.04321,354.10035 185.04321,358.060261 C185.04321,362.219794 178.627827,367.882549 172.226281,372.497687 C170.047204,368.814308 167.274935,368.174589 165.993803,371.077992 C165.332616,372.582184 165.202385,374.747971 165.525415,377.014441 C162.039359,379.225147 159.492019,380.649616 159.492019,380.649616 C159.492019,380.649616 157.524513,379.521084 154.711754,377.705572 C155.16542,375.193533 155.07821,372.73434 154.347841,371.077992 C153.055662,368.135656 150.228,368.832102 148.032115,372.647505 C147.971725,372.752213 147.912444,372.858186 147.854284,372.965338 Z" id="path-1"></path>
    </defs>
    <g id="avatar-transparent" stroke="none" stroke-width="1" fill="none" fill-rule="evenodd">
        <g id="snyk-dog">
            <g id="dog" transform="translate(140.000000, 39.000000)">
                <path d="M278.014819,134.038371 L42.7052675,134.038371 C42.7052675,119.331202 63.9746833,74.8746674 106.513515,0.668765806 C106.513515,0.668765806 112.403287,39.8047778 124.182832,118.076802 L196.070971,118.078627 L213.716112,0.668765806 C256.581917,75.8586387 278.014819,120.315174 278.014819,134.038371 Z" id="shield-outline-ears" fill="#FFFFFF" fill-rule="nonzero"></path>
                <path d="M160,506.107895 L0,394.152811 L0,132.857321 C0,132.857321 59.1570652,111.056552 160.20516,111.056552 C261.253255,111.056552 319.977707,132.857321 319.977707,132.857321 L319.977707,394.152811 L160,506.107895 Z" id="shield-outline" fill="#FFFFFF" fill-rule="nonzero"></path>
                <path d="M160,490.371496 L10.22293,386.006872 L10.22293,143.344962 C10.22293,143.344962 66.233414,123.098856 160,123.098856 L160,490.371496 Z" id="shield-left" fill="#DBDBDB" fill-rule="nonzero"></path>
                <path d="M160.203872,123.098856 C160.134514,123.098856 160.069358,123.100907 160,123.098856 L160,490.062872 L160.002102,490.062872 L308.463236,386.000716 L308.463236,143.344962 C308.463236,143.344962 253.970459,123.098856 160.203872,123.098856 Z" id="shield-right" fill="#C6C6C6" fill-rule="nonzero"></path>
                <path d="M241.043213,433.274525 L228.413241,323.671455 L159,323.671455 C159,410.662861 159,466.31453 159,490.626465 L160,491.569743 C187.005017,473.121113 214.019421,453.689374 241.043213,433.274525 Z" id="neck-right" fill="#3B3B63" fill-rule="nonzero"></path>
                <polygon id="neck-left" fill="#53537A" fill-rule="nonzero" points="79 434.139523 160 491.569743 160.040161 320.33373 89.8902229 320.33373"></polygon>
                <path d="M194.660943,401.697556 C194.660943,420.527706 176.768771,429.862498 160.354834,429.862498 C143.940898,429.862498 125.686834,420.527706 125.686834,401.697556" id="chin" fill="#BC9375" fill-rule="nonzero"></path>
                <path d="M160.172866,411.435766 C146.99551,411.435766 140.587777,401.932382 140.587777,382.39575 L146.87079,382.39575 C146.87079,405.268099 155.852656,405.268099 160.172866,405.268099 C164.491032,405.268099 173.474943,405.268099 173.474943,382.39575 L179.755911,382.39575 C179.755911,401.932382 173.348178,411.435766 160.172866,411.435766 Z" id="teeth" fill="#FFFFFF" fill-rule="nonzero"></path>
                <path d="M160,387.164503 C164.054349,397.642646 171.890873,402.881717 183.509574,402.881717 C194.88565,402.881717 206.756516,396.997044 212.162402,382.453955 C219.713058,362.110489 219.637408,333.795019 219.637408,333.795019 C219.637408,333.795019 253.191406,292.516989 253.191406,278.559317 C253.191406,278.559317 222.127604,278.559317 160,278.559317 L160,387.164503 Z" id="face-right" fill="#C49A7E" fill-rule="nonzero"></path>
                <path d="M65.4570312,278.559317 C65.4570312,294.723177 98.7205927,333.795019 98.7205927,333.795019 C98.7205927,333.795019 98.6388093,362.102461 106.197644,382.453955 C111.591262,396.987008 123.474395,402.881717 134.852516,402.881717 C146.471217,402.881717 154.853711,397.642646 160,387.164503 L160,278.559317 L65.4570312,278.559317 Z" id="face-left" fill="#D8B7A0" fill-rule="nonzero"></path>
                <path d="M249.185962,185.616476 C223.319904,159.554923 216.850834,105.210013 216.850834,105.210013 C212.021522,122.33417 201.524618,172.823535 201.524618,172.823535 C201.524618,172.823535 181.136679,166.344195 159.175781,166.310075 C158.454724,166.310075 158.454724,234.336456 159.175781,370.389217 L180.083045,355.539406 L183.969803,283.474245 L206.231255,308.433927 L234.908618,316.668855 C234.908618,316.668855 245.638605,309.150444 245.638605,309.178542 C250.193943,302.908516 251.704892,297.567754 252.806924,294.796017 C256.789777,284.712595 247.846758,207.599702 247.846758,207.599702 C244.671516,201.068759 249.185962,185.616476 249.185962,185.616476 Z" id="brow-right" fill="#3B3B63" fill-rule="nonzero"></path>
                <path d="M119.021484,172.819521 C119.021484,172.819521 108.52049,122.332162 103.695268,105.205999 C103.695268,105.205999 97.2302866,159.55091 71.3601401,185.612462 C71.3601401,185.612462 75.874586,201.066753 72.6993439,207.595688 C72.6993439,207.595688 63.7563248,284.712595 67.7391783,294.779961 C68.8391656,297.553706 70.3623822,302.89246 74.911586,309.162486 C74.911586,309.134388 85.647707,316.654806 85.647707,316.654806 L114.318936,308.417871 L136.576299,283.462203 L140.47328,355.527364 L160.021118,369.984152 L160.021118,165.927527 C137.978437,165.963654 119.021484,172.819521 119.021484,172.819521 Z" id="brow-left" fill="#53537A" fill-rule="nonzero"></path>
                <path d="M231.085242,54.8470911 C235.376828,62.7067014 272.269897,135.367212 272.269897,160.529606 L255.906516,204.326202 C258.674885,229.039017 264.180955,282.73565 260.024312,293.226504 C257.458357,299.715298 247.677057,313.064193 239.310611,323.874168 L250.748749,426.463568 L235.286377,437.404832 L226.689382,362.445667 C225.507611,370.052389 223.730866,378.174922 221.02179,385.468545 C217.439675,395.122458 211.109637,402.438158 203.013076,406.77138 C202.538732,429.914681 180.819096,442.400543 160.354834,442.400543 C139.720873,442.400543 117.819268,429.924717 117.336745,406.789444 C109.223828,402.448194 102.885611,395.132494 99.2994076,385.468545 C96.6986943,378.45591 94.9464841,370.692637 93.7585796,363.340811 L85.5344238,438.782731 L69.9881897,427.66351 L81.2150446,324.187267 C72.783172,313.329123 62.8137707,299.781531 60.2232803,293.220483 C56.0666369,282.727622 61.3580255,229.039017 64.1304841,204.322189 L46.7944395,158.990943 L46.7944395,157.513753 C46.7944395,132.351359 84.6540382,62.7067014 88.951758,54.8470911 L101.21314,32.7815762 C108.678605,83.9051706 112.408612,109.489714 112.403159,109.535207 L118.440822,150.96274 L126.384038,163.793815 C134.016478,161.262924 146.973019,157.748578 160.093127,157.748578 C173.227548,157.748578 186.272006,161.274966 193.937159,163.801843 L201.876287,150.964746 L219.077389,32.7815762 L231.085242,54.8470911 Z M160.354834,425.950756 C169.41235,425.950756 182.311643,421.92662 185.531866,411.259146 C185.186331,411.269181 184.853064,411.29728 184.507529,411.29728 C182.745096,411.29728 181.097159,411.134708 179.498293,410.919954 C174.826414,417.304382 167.547688,419.241186 160.174911,419.241186 C152.814401,419.241186 145.549987,417.286319 140.886287,410.911925 C139.277197,411.136715 137.61086,411.29728 135.834115,411.29728 C135.494713,411.29728 135.16758,411.269181 134.834312,411.259146 C138.087248,421.92662 151.160331,425.950756 160.354834,425.950756 Z M149.747522,408.417162 C152.556783,410.484424 156.02849,411.634464 160.181045,411.634464 C164.311108,411.634464 167.766459,410.476396 170.571631,408.417162 C168.334854,407.439728 166.310713,406.275638 164.52579,405.005176 C162.910567,405.474825 161.36486,405.46479 160.172866,405.46479 C158.974739,405.46479 157.412675,405.46479 155.785185,404.995141 C154.00435,406.275638 151.984299,407.439728 149.747522,408.417162 Z M214.107,328.831582 C225.235682,315.255892 241.989019,293.391082 244.415943,287.271584 C246.245847,280.971452 243.123764,239.204729 239.151134,204.197751 L238.932363,202.256934 L242.215968,193.560383 C231.389885,182.224561 223.837185,166.689989 218.67665,152.020455 L218.006025,156.628644 L200.913287,184.221576 L194.237713,181.427761 C194.074146,181.357515 176.646096,174.190337 160.10335,174.190337 C143.454287,174.190337 126.308389,181.351494 126.140732,181.42174 L119.454936,184.239639 L102.341752,156.634665 L101.834694,153.098242 C96.6189554,167.625274 89.0580764,182.886887 78.2831083,193.975842 L81.4195032,202.262954 L81.2007325,204.20578 C77.2260573,239.204729 74.1039745,280.971452 75.9952166,287.430141 C78.3608025,293.401118 95.1161847,315.265928 106.238732,328.831582 L108.095217,331.097543 L108.084994,334.001745 C108.084994,334.274704 108.117707,361.131049 115.057032,379.820704 C120.094892,393.376325 131.270599,394.825415 135.848427,394.825415 C147.355357,394.825415 152.223516,384.454984 152.423885,384.013433 C155.120462,378.802588 156.46875,370.241686 156.46875,358.330726 C156.46875,358.330726 163.425781,358.330726 163.425781,358.330726 C163.425781,367.900127 164.876081,376.479762 167.776682,384.069631 C167.952516,384.444949 172.94335,394.851507 184.507529,394.851507 C189.075134,394.851507 200.25493,393.38636 205.288701,379.830739 C212.250516,361.074851 212.258694,334.274704 212.258694,334.011781 L212.250516,331.107578 L214.107,328.831582 Z" id="face-outline" fill="#333152" fill-rule="nonzero"></path>
                <path d="M212.209623,255.835151 L187.081662,255.835151 L178.707037,255.835151 L178.707037,256.182371 C178.707037,267.670728 188.823649,276.977422 200.690426,276.977422 C212.561292,276.977422 222.677904,267.668721 222.677904,256.182371 L222.677904,255.835151 L212.209623,255.835151 Z" id="eye-shadow-right" fill="#333152" fill-rule="nonzero"></path>
                <path d="M187.081662,255.835151 L187.081662,256.182371 C187.081662,263.016378 192.683827,268.553831 199.647687,268.553831 C206.611547,268.553831 212.211668,263.016378 212.211668,256.182371 L212.211668,255.835151 L187.081662,255.835151 Z" id="eye-right" fill="#FFFFFF" fill-rule="nonzero"></path>
                <path d="M197.635814,255.835151 C197.578566,255.835151 197.529496,255.863249 197.478381,255.873285 C198.208298,256.023814 198.613126,257.649525 198.455693,258.731325 C198.220566,260.385135 196.785267,261.533168 195.141419,261.561266 C195.619853,263.72286 197.414999,265.460966 199.798986,265.790122 C202.845419,266.21361 205.660814,264.162404 206.092222,261.173906 C206.402999,258.974178 205.325502,255.835151 203.524222,255.835151 L197.635814,255.835151 Z" id="eye-pupil-right" fill="#333152" fill-rule="nonzero"></path>
                <path d="M131.336025,255.835151 L106.212153,255.835151 L97.8354837,255.835151 L97.8354837,256.182371 C97.8354837,267.670728 107.95414,276.977422 119.818872,276.977422 C131.689739,276.977422 141.808395,267.668721 141.808395,256.182371 L141.808395,255.835151 L131.336025,255.835151 Z" id="eye-shadow-left" fill="#333152" fill-rule="nonzero"></path>
                <path d="M106.212153,255.835151 L106.212153,256.182371 C106.212153,263.016378 111.818407,268.553831 118.772044,268.553831 C125.737949,268.553831 131.33807,263.016378 131.33807,256.182371 L131.33807,255.835151 L106.212153,255.835151 Z" id="eye-left" fill="#FFFFFF" fill-rule="nonzero"></path>
                <path d="M122.654713,255.835151 L116.760172,255.835151 C116.709057,255.835151 116.653853,255.863249 116.606828,255.873285 C117.3347,256.023814 117.737484,257.649525 117.58414,258.731325 C117.346968,260.385135 115.919847,261.533168 114.265777,261.561266 C114.750343,263.72286 116.54549,265.460966 118.925388,265.790122 C121.969777,266.21361 124.791305,264.162404 125.216579,261.173906 C125.531445,258.974178 124.455993,255.835151 122.654713,255.835151 Z" id="eye-pupil-left" fill="#333152" fill-rule="nonzero"></path>
                <path d="M209.682516,246.0287 C211.089191,244.515385 223.031618,231.212653 207.059312,231.212653 C192.62658,231.212653 182.242127,242.644814 179.490115,246.0287 L209.682516,246.0287 Z" id="brow-right" fill="#C49A7E" fill-rule="nonzero"></path>
                <path d="M140.788146,246.0287 C138.038178,242.644814 127.653726,231.212653 113.216904,231.212653 C97.2527771,231.212653 109.195204,244.515385 110.593701,246.0287 L140.788146,246.0287 Z" id="brow-left" fill="#D8B7A0" fill-rule="nonzero"></path>
                <path d="M64.0037197,156.17505 C64.9524076,143.1232 78.7840318,111.851343 91.9777452,85.4967615 L95.4944331,109.593412 C94.1531847,118.603062 88.0235159,153.937188 71.5809554,176.20943 L64.0037197,156.17505 Z" id="ear-left" fill="#D8B7A0" fill-rule="nonzero"></path>
                <path d="M225.131408,107.71682 L228.372076,85.4987686 C241.563745,111.851343 255.403548,143.125207 256.352236,156.177058 L248.952879,175.735766 C231.187471,151.217635 225.61393,111.359616 225.131408,107.71682 Z" id="ear-right" fill="#C49A7E" fill-rule="nonzero"></path>
                <mask id="mask-2" fill="white">
                    <use xlink:href="#path-1"></use>
                </mask>
                <use id="nose" fill="#333152" fill-rule="nonzero" xlink:href="#path-1"></use>
            </g>
        </g>
    </g>
</svg>