<svg width="22" height="22" viewBox="0 0 22 22" fill="none" xmlns="http://www.w3.org/2000/svg">
<path fill-rule="evenodd" clip-rule="evenodd" d="M19 15C19.7407 15 20.4186 15.2684 20.9419 15.7132C21.6204 14.2847 22 12.6867 22 11C22 4.92487 17.0751 0 11 0C4.92487 0 0 4.92487 0 11C0 12.6867 0.379608 14.2847 1.05806 15.7132C1.58138 15.2684 2.25934 15 3 15C3.57216 15 4.10692 15.1602 4.56186 15.4381L6.53552 13.4645L7.24263 14.1716L5.31836 16.0959C5.74428 16.6138 6 17.2771 6 18C6 18.8838 5.61783 19.6784 5.0097 20.2274C6.73328 21.3486 8.79056 22 11 22C13.2094 22 15.2667 21.3486 16.9903 20.2274C16.3822 19.6784 16 18.8838 16 18C16 16.3431 17.3431 15 19 15ZM15 10C15 10.9244 14.6864 11.7755 14.1599 12.4528L16.6426 14.9355L15.9355 15.6426L13.4528 13.16C12.7755 13.6865 11.9243 14 11 14C8.79086 14 7 12.2091 7 10C7 7.79086 8.79086 6 11 6C13.2091 6 15 7.79086 15 10Z" fill="white"/>
<path d="M5 18C5 19.1046 4.10457 20 3 20C1.89543 20 1 19.1046 1 18C1 16.8954 1.89543 16 3 16C4.10457 16 5 16.8954 5 18Z" fill="white"/>
<path d="M21 18C21 19.1046 20.1046 20 19 20C17.8954 20 17 19.1046 17 18C17 16.8954 17.8954 16 19 16C20.1046 16 21 16.8954 21 18Z" fill="white"/>
</svg>
