<svg width="22" height="22" viewBox="0 0 22 22" fill="none" xmlns="http://www.w3.org/2000/svg">
<rect x="17" y="16" width="4" height="4" rx="2" fill="white"/>
<path fill-rule="evenodd" clip-rule="evenodd" d="M0 11C0 4.92487 4.92487 0 11 0C17.0751 0 22 4.92487 22 11C22 12.6867 21.6204 14.2847 20.9419 15.7132C20.6871 15.4966 20.3956 15.3219 20.0781 15.1995C20.6698 13.9226 21 12.4999 21 11C21 5.47715 16.5229 1 11 1C5.47715 1 1 5.47715 1 11C1 16.5229 5.47715 21 11 21C12.9751 21 14.8164 20.4274 16.3671 19.4392C16.5297 19.736 16.741 20.0023 16.9903 20.2274C15.2667 21.3486 13.2094 22 11 22C4.92487 22 0 17.0751 0 11Z" fill="white"/>
<path fill-rule="evenodd" clip-rule="evenodd" d="M7 10C7 7.79086 8.79086 6 11 6C13.2091 6 15 7.79086 15 10C15 10.9244 14.6865 11.7755 14.1599 12.4528L16.6426 14.9355L15.9355 15.6426L13.4528 13.1599C12.7755 13.6865 11.9244 14 11 14C8.79086 14 7 12.2091 7 10ZM8 10C8 8.34315 9.34315 7 11 7C12.6569 7 14 8.34315 14 10C14 11.6569 12.6569 13 11 13C9.34315 13 8 11.6569 8 10Z" fill="white"/>
<path d="M1 18C1 16.8954 1.89543 16 3 16C4.10457 16 5 16.8954 5 18C5 19.1046 4.10457 20 3 20C1.89543 20 1 19.1046 1 18Z" fill="white"/>
<path d="M3.65625 16.3438L6.53553 13.4645L7.24264 14.1716L4.36336 17.0509L3.65625 16.3438Z" fill="white"/>
</svg>
