<svg width="217" height="217" viewBox="0 0 217 217" fill="none" xmlns="http://www.w3.org/2000/svg">
<path d="M111.107 144.564C132.908 144.564 150.582 126.89 150.582 105.089C150.582 83.2871 132.908 65.6135 111.107 65.6135C89.3052 65.6135 71.6316 83.2871 71.6316 105.089C71.6316 126.89 89.3052 144.564 111.107 144.564Z" stroke="#4FD5F0" stroke-width="3"/>
<path d="M80.2235 146.949C87.9378 146.949 94.1916 140.695 94.1916 132.981C94.1916 125.266 87.9378 119.013 80.2235 119.013C72.5091 119.013 66.2554 125.266 66.2554 132.981C66.2554 140.695 72.5091 146.949 80.2235 146.949Z" fill="#FAFAFA"/>
<path d="M142.017 145.431C149.732 145.431 155.985 139.177 155.985 131.462C155.985 123.748 149.732 117.494 142.017 117.494C134.303 117.494 128.049 123.748 128.049 131.462C128.049 139.177 134.303 145.431 142.017 145.431Z" fill="#FAFAFA"/>
<path d="M111.039 176.226C150.365 176.226 182.245 144.345 182.245 105.019C182.245 65.6922 150.365 33.8118 111.039 33.8118C71.712 33.8118 39.8315 65.6922 39.8315 105.019C39.8315 144.345 71.712 176.226 111.039 176.226Z" stroke="#4FE2F0" stroke-width="2"/>
<path d="M63.3708 62.9884C68.6534 62.9884 72.9359 58.7059 72.9359 53.4233C72.9359 48.1406 68.6534 43.8582 63.3708 43.8582C58.0881 43.8582 53.8057 48.1406 53.8057 53.4233C53.8057 58.7059 58.0881 62.9884 63.3708 62.9884Z" fill="#FAFAFA"/>
<path d="M63.5226 58.889C66.709 58.889 69.292 56.306 69.292 53.1196C69.292 49.9332 66.709 47.3502 63.5226 47.3502C60.3362 47.3502 57.7532 49.9332 57.7532 53.1196C57.7532 56.306 60.3362 58.889 63.5226 58.889Z" fill="#4FE2F0"/>
<path d="M111.132 209.418C168.739 209.418 215.438 162.719 215.438 105.113C215.438 47.5066 168.739 0.807556 111.132 0.807556C53.5262 0.807556 6.82715 47.5066 6.82715 105.113C6.82715 162.719 53.5262 209.418 111.132 209.418Z" stroke="#4FF0F0"/>
<path d="M177.393 95.3276C182.676 95.3276 186.958 91.0452 186.958 85.7625C186.958 80.4798 182.676 76.1974 177.393 76.1974C172.11 76.1974 167.828 80.4798 167.828 85.7625C167.828 91.0452 172.11 95.3276 177.393 95.3276Z" fill="#FAFAFA"/>
<path d="M177.545 91.3801C180.731 91.3801 183.314 88.797 183.314 85.6106C183.314 82.4242 180.731 79.8412 177.545 79.8412C174.358 79.8412 171.775 82.4242 171.775 85.6106C171.775 88.797 174.358 91.3801 177.545 91.3801Z" fill="#4FE2F0"/>
<path d="M115.144 216.182C118.498 216.182 121.217 213.463 121.217 210.109C121.217 206.755 118.498 204.036 115.144 204.036C111.79 204.036 109.071 206.755 109.071 210.109C109.071 213.463 111.79 216.182 115.144 216.182Z" fill="white"/>
<path d="M115.296 213.601C117.308 213.601 118.94 211.97 118.94 209.957C118.94 207.945 117.308 206.313 115.296 206.313C113.283 206.313 111.652 207.945 111.652 209.957C111.652 211.97 113.283 213.601 115.296 213.601Z" fill="#4FF0F0"/>
<path d="M207.151 154.085C210.505 154.085 213.224 151.366 213.224 148.012C213.224 144.658 210.505 141.939 207.151 141.939C203.797 141.939 201.078 144.658 201.078 148.012C201.078 151.366 203.797 154.085 207.151 154.085Z" fill="#FAFAFA"/>
<path d="M207.303 151.504C209.315 151.504 210.947 149.872 210.947 147.86C210.947 145.847 209.315 144.216 207.303 144.216C205.291 144.216 203.659 145.847 203.659 147.86C203.659 149.872 205.291 151.504 207.303 151.504Z" fill="#4FF0F0"/>
<path d="M6.43564 116.432C9.78971 116.432 12.5087 113.713 12.5087 110.358C12.5087 107.004 9.78971 104.285 6.43564 104.285C3.08156 104.285 0.362549 107.004 0.362549 110.358C0.362549 113.713 3.08156 116.432 6.43564 116.432Z" fill="#FAFAFA"/>
<path d="M6.4356 113.851C8.44805 113.851 10.0794 112.219 10.0794 110.207C10.0794 108.194 8.44805 106.563 6.4356 106.563C4.42316 106.563 2.79175 108.194 2.79175 110.207C2.79175 112.219 4.42316 113.851 6.4356 113.851Z" fill="#4FF0F0"/>
<path d="M134.578 132.525C134.578 128.122 138.07 124.63 142.473 124.63C146.876 124.63 150.368 128.122 150.368 132.525C150.368 136.928 146.876 140.42 142.473 140.42C138.07 140.42 134.578 136.928 134.578 132.525C134.578 132.677 134.578 132.677 134.578 132.525ZM71.873 132.525C71.873 128.122 75.3651 124.63 79.7681 124.63C81.1345 124.63 82.501 124.934 83.7156 125.693L94.0398 115.369L96.7727 118.102L86.4485 128.426C88.574 132.222 87.3594 136.928 83.7156 139.206C79.9199 141.331 75.2132 140.117 72.9358 136.473C72.1767 135.41 71.873 134.044 71.873 132.525ZM120.61 113.547C113.777 118.861 103.909 117.646 98.5946 110.814C93.2807 103.982 94.4953 94.113 101.328 88.799C108.16 83.4851 118.029 84.6997 123.343 91.5319C127.745 97.1495 127.745 105.045 123.343 110.814L133.667 121.138L130.934 123.871L120.61 113.547ZM99.202 101.249C99.202 107.777 104.516 112.94 110.893 112.94C117.269 112.94 122.583 107.626 122.583 101.249C122.583 94.7203 117.269 89.5581 110.893 89.5581C104.516 89.4063 99.202 94.7203 99.202 101.249Z" fill="#50C8EF"/>
</svg>
