<svg id="Layer_1" data-name="Layer 1" xmlns="http://www.w3.org/2000/svg" viewBox="0 0 24.01 24"><title>newwindow</title><g id="newwindow"><path id="Path_2261" data-name="Path 2261" d="M19.74,2.4,11,11.17A1.32,1.32,0,0,0,12.84,13L21.6,4.27V7.2a1.2,1.2,0,0,0,2.4,0v-6A1.2,1.2,0,0,0,22.8,0h-6a1.2,1.2,0,0,0,0,2.4ZM24,14.4V21a2.84,2.84,0,0,1-2.66,3H2.66A2.84,2.84,0,0,1,0,21V3A2.84,2.84,0,0,1,2.66,0H9.6a1.2,1.2,0,1,1,0,2.4H3.08a.75.75,0,0,0-.68.8V20.8a.75.75,0,0,0,.68.8H20.92a.75.75,0,0,0,.68-.8V14.4a1.2,1.2,0,1,1,2.4,0Z" transform="translate(0 0)"/></g></svg>