<svg id="Layer_1" data-name="Layer 1" xmlns="http://www.w3.org/2000/svg" viewBox="0 0 19.16 24"><title>icon-like</title><g id="like"><path id="Path_2229" data-name="Path 2229" d="M9.21,8.62a14.27,14.27,0,0,1,.52-2.81A3.91,3.91,0,0,0,7.44,1.46a.61.61,0,0,0-.73.08.46.46,0,0,0,0,.21c0,.42,0,.85,0,1.26s0,.64,0,.9a10.19,10.19,0,0,1-1.4,4.37A7.72,7.72,0,0,1,3.5,10.5l-1,.85-.34.31C1,14.71,1.12,19.41,2.36,21.81a31.18,31.18,0,0,0,5.55.77,2.21,2.21,0,0,1-.3-1.18A2.08,2.08,0,0,1,8,20.15,2.18,2.18,0,0,1,7,17.81a2.64,2.64,0,0,1,.4-1.11,2.32,2.32,0,0,1-.81-2.3,2.45,2.45,0,0,1,1.17-1.93,2.52,2.52,0,0,1-.26-1.55A2.26,2.26,0,0,1,9.21,8.62ZM11.06,9.7l-.11,0-1.18.15-.05,0c-.67.22-.79.34-.86,1.15s.13.95.92,1.13a14.34,14.34,0,0,0,2.54.24.69.69,0,0,1,0,1.37c-.8,0-1.5-.07-2.07-.14H9.67l-.59,0H8.72c-.39,0-.7.28-.78,1s.15,1.17,1,1.26c.59.06,1.42.11,2.26.14a.69.69,0,1,1,0,1.37h0L10,17.3H9c-.35,0-.54.18-.63.75s.2,1,1,1.13c.44,0,.91.07,1.38.09h.79a.69.69,0,0,1,0,1.38H9.83a.89.89,0,0,0-.85.8c0,.57.29.82,1.31.93a15.5,15.5,0,0,0,4-.16.69.69,0,0,1,.23,0l.2-.08c.45-.22.71-.8.65-2.23a.69.69,0,0,1,.29-.59c.92-.64,1.06-1.35.7-2.58a.69.69,0,0,1,.47-.85l.06,0c.18,0,.45-.41.57-1a1.41,1.41,0,0,0-.13-1.21.69.69,0,0,1-.07-1l0,0a2.26,2.26,0,0,0,.45-1.33c0-.92-.31-1.32-1.21-1.47a15.21,15.21,0,0,0-1.87-.18,30.79,30.79,0,0,0-3.58.08Zm4.27,13.59a2.75,2.75,0,0,1-.46.17l-.19,0-.15,0c-2.49.68-8.42.66-12.8-.48a.69.69,0,0,1-.42-.31C-.31,20-.42,14.55,1,11a.69.69,0,0,1,.15-.23l.5-.47,1-.83A6.38,6.38,0,0,0,4,7.65,8.88,8.88,0,0,0,5.28,3.78c0-.22,0-.49,0-.79s0-.78,0-1.19c0-.19,0-.34,0-.42A.69.69,0,0,1,5.38,1a2.09,2.09,0,0,1,.43-.5A2,2,0,0,1,8,.21a5.24,5.24,0,0,1,3.06,5.95,16.78,16.78,0,0,0-.45,2.17,1.37,1.37,0,0,0,.39,0,32.11,32.11,0,0,1,3.74-.09,16.55,16.55,0,0,1,2,.2,2.58,2.58,0,0,1,2.36,2.79v0a3.84,3.84,0,0,1-.5,1.83,3.33,3.33,0,0,1-.82,3.73,3.1,3.1,0,0,1-1.07,3.3c0,1.71-.49,2.71-1.43,3.16Z" transform="translate(0 0)"/></g></svg>