<svg width="124" height="184" viewBox="0 0 124 184" fill="none" xmlns="http://www.w3.org/2000/svg">
<path fill-rule="evenodd" clip-rule="evenodd" d="M105.4 48.332C105.4 38.5819 90.9195 11.5956 89.2649 8.55007L84.6353 0L78.0035 45.7943L74.9427 50.7685C71.9874 49.7894 66.9582 48.423 61.8943 48.423C56.8359 48.423 51.8406 49.7847 48.8979 50.7654L45.8355 45.7935L43.5077 29.7409C43.5109 29.7145 43.5148 29.6787 43.5148 29.6624L43.4967 29.6601L39.1935 0L34.4662 8.55007C32.8092 11.5956 18.2126 38.5819 18.2126 48.332V48.9044L24.8965 66.4696C23.8276 76.047 21.7875 96.8506 23.3901 100.916C24.3888 103.459 28.2325 108.708 31.4833 112.916L27.1044 153.181L33.1332 157.378L36.3194 128.087C36.7774 130.936 37.4529 133.944 38.4556 136.661C39.8383 140.406 42.2819 143.241 45.4098 144.923C45.5959 153.887 54.0399 158.722 61.9952 158.722C69.8851 158.722 78.2589 153.883 78.4418 144.916C81.5634 143.237 84.0039 140.402 85.385 136.661C86.4294 133.835 87.1145 130.688 87.5701 127.74L90.7752 157.137L96.804 152.791L92.4361 112.794C95.6618 108.606 99.4329 103.433 100.422 100.919C102.025 96.8537 99.9019 76.047 98.8346 66.4711L105.399 48.9036L105.4 48.332ZM24.8001 47.6173C25.162 42.5854 30.4383 30.5291 35.4712 20.3686L36.8126 29.6586C36.301 33.1321 33.9628 46.7545 27.6906 55.3412L24.8001 47.6173ZM62.0658 152.188C58.5519 152.188 53.5558 150.646 52.3126 146.557C52.44 146.56 52.565 146.571 52.6947 146.571C53.3738 146.571 54.0106 146.51 54.6255 146.424C56.4078 148.867 59.1841 149.616 61.997 149.616C64.8147 149.616 67.5964 148.874 69.3818 146.427C69.9928 146.509 70.6226 146.571 71.2962 146.571C71.4282 146.571 71.5556 146.56 71.6876 146.557C70.457 150.646 65.5273 152.188 62.0658 152.188ZM57.7376 145.504C58.6117 145.108 59.4011 144.636 60.097 144.118C60.733 144.308 61.3434 144.308 61.8116 144.308C62.2774 144.308 62.8814 144.312 63.5126 144.122C64.2101 144.637 65.0011 145.108 65.8751 145.504C64.779 146.339 63.4287 146.808 61.8148 146.808C60.1921 146.808 58.8354 146.342 57.7376 145.504ZM94.3429 98.5608C93.4053 100.934 86.9335 109.412 82.6345 114.676L81.9173 115.558L81.9205 116.684C81.9205 116.786 81.9173 127.178 79.228 134.45C77.2834 139.706 72.9646 140.275 71.2001 140.275C66.7329 140.275 64.8049 136.239 64.737 136.094L64.4819 132.314H59.051L58.8062 136.072C58.7288 136.243 56.8482 140.264 52.4031 140.264C50.6346 140.264 46.3174 139.703 44.3713 134.446C41.6906 127.2 41.678 116.786 41.678 116.68L41.6819 115.554L40.9648 114.676C36.6681 109.415 30.1955 100.937 29.2817 98.6223C28.5511 96.1179 29.7571 79.923 31.2926 66.3523L31.3771 65.599L30.1655 62.3857C34.3279 58.086 37.2486 52.1684 39.2635 46.5356L39.4594 47.9068L46.0702 58.6105L48.653 57.5179C48.7177 57.4906 55.3412 54.7139 61.7728 54.7139C68.1633 54.7139 74.8958 57.493 74.9589 57.5202L77.5377 58.6035L84.1407 47.9045L84.3997 46.1176C86.3933 51.8057 89.3109 57.8292 93.493 62.2246L92.2246 65.5967L92.3091 66.3492C93.8437 79.923 95.0498 96.1179 94.3429 98.5608ZM95.9657 55.3412C89.1303 45.8388 86.9858 30.3913 86.8001 28.9795L88.047 20.3686C93.1226 30.5819 98.4476 42.7025 98.8126 47.7609L95.9657 55.3412Z" fill="white"/>
<path fill-rule="evenodd" clip-rule="evenodd" d="M69.6799 121.443H54.3714C54.3714 121.443 52.3126 124.962 52.3126 126.104C52.3126 129.495 61.7349 134.894 61.7349 134.894C61.7349 134.894 71.6876 129.334 71.6876 126.104C71.6876 124.563 69.6799 121.443 69.6799 121.443Z" fill="white"/>
<path d="M69.0752 84.2184V84H75.5864C75.5643 84 75.5442 84.0067 75.5245 84.0132C75.5126 84.0172 75.5008 84.0211 75.4888 84.0234C75.9415 84.116 76.1926 85.1154 76.095 85.7804C75.9491 86.7971 75.0589 87.5029 74.0392 87.5201C74.336 88.849 75.4495 89.9175 76.9282 90.1198C78.8178 90.3802 80.564 89.1192 80.8316 87.282C81.0244 85.9297 80.3561 84 79.2388 84H84.5874V84.2184C84.5874 88.517 81.1305 92 76.8319 92C72.5333 92 69.0752 88.517 69.0752 84.2184Z" fill="white"/>
<path d="M39 84.2184V84H45.511C45.4909 84 45.4697 84.007 45.4495 84.0136C45.4379 84.0175 45.4266 84.0212 45.4159 84.0234C45.8674 84.116 46.1172 85.1154 46.0221 85.7804C45.875 86.7971 44.9899 87.5029 43.964 87.5201C44.2646 88.849 45.3779 89.9175 46.8539 90.1198C48.742 90.3802 50.4919 89.1192 50.7556 87.282C50.9509 85.9297 50.2839 84 49.1668 84H54.5122V84.2184C54.5122 88.517 51.0548 92 46.7542 92C42.4612 92 39 88.517 39 84.2184Z" fill="white"/>
<path d="M100.009 38.2293C112.048 40.3853 118.575 42.8178 118.575 42.8178V136.846L61.2246 177.169L3.875 136.846V42.8178C3.875 42.8178 11.4636 40.0103 25.3159 37.7543L26.9807 32.76C9.59879 35.2547 0 38.7991 0 38.7991V139.943L61.8058 183.317L123.613 139.943V38.7991C123.613 38.7991 114.636 35.4601 98.2602 32.9827L100.009 38.2293Z" fill="white"/>
<path d="M85.2815 36.1725L84.5925 31.3498C77.8111 30.7449 70.223 30.3604 61.8898 30.3604C53.8486 30.3604 46.4941 30.7184 39.8845 31.2871L38.7558 36.0279C45.4257 35.3882 52.9665 34.9727 61.3025 34.9727C70.251 34.9727 78.2735 35.4515 85.2815 36.1725Z" fill="white"/>
<path opacity="0.3" d="M1 138.5L3.5 42.5V41L25.5 36.5L21 46.5L27.5 66.5L25.5 99.5L34.5 113L30 157.5L1 138.5Z" fill="white"/>
<path opacity="0.3" d="M120 40.5L99.5 37L103 45.5L95.5 64.5L97 101.5L89 114.5L95.5 157L120 138.5V40.5Z" fill="white"/>
<path opacity="0.3" d="M43.5 46V33.5H82.5V44.5L76 54H47L43.5 46Z" fill="white"/>
</svg>
